<mxfile host="app.diagrams.net" modified="2023-03-18T03:14:08.704Z" agent="5.0 (Windows NT 10.0; Win64; x64) AppleWebKit/537.36 (KHTML, like Gecko) Chrome/108.0.0.0 Safari/537.36" etag="TMSxN0A_LDmtqHd5gOYt" version="21.0.7" type="github">
  <diagram name="第 1 页" id="9z1iVQIgPW0uV3iC-OwV">
    <mxGraphModel dx="1366" dy="728" grid="1" gridSize="10" guides="1" tooltips="1" connect="1" arrows="1" fold="1" page="1" pageScale="1" pageWidth="3300" pageHeight="4681" math="0" shadow="0">
      <root>
        <mxCell id="0" />
        <mxCell id="1" parent="0" />
        <mxCell id="3i3_qJuaZtlP3eawbYPi-11" style="edgeStyle=orthogonalEdgeStyle;rounded=0;orthogonalLoop=1;jettySize=auto;html=1;entryX=0.5;entryY=0;entryDx=0;entryDy=0;" edge="1" parent="1" source="3i3_qJuaZtlP3eawbYPi-1" target="3i3_qJuaZtlP3eawbYPi-2">
          <mxGeometry relative="1" as="geometry" />
        </mxCell>
        <mxCell id="3i3_qJuaZtlP3eawbYPi-1" value="Expert&lt;br&gt;专家" style="rounded=1;whiteSpace=wrap;html=1;" vertex="1" parent="1">
          <mxGeometry x="790" y="905" width="120" height="60" as="geometry" />
        </mxCell>
        <mxCell id="3i3_qJuaZtlP3eawbYPi-39" style="edgeStyle=orthogonalEdgeStyle;rounded=0;orthogonalLoop=1;jettySize=auto;html=1;entryX=0;entryY=0.5;entryDx=0;entryDy=0;" edge="1" parent="1" source="3i3_qJuaZtlP3eawbYPi-2" target="3i3_qJuaZtlP3eawbYPi-8">
          <mxGeometry relative="1" as="geometry" />
        </mxCell>
        <mxCell id="3i3_qJuaZtlP3eawbYPi-2" value="InspectionTeam&lt;br&gt;巡查小组" style="rounded=1;whiteSpace=wrap;html=1;" vertex="1" parent="1">
          <mxGeometry x="790" y="1070" width="120" height="60" as="geometry" />
        </mxCell>
        <mxCell id="3i3_qJuaZtlP3eawbYPi-9" style="edgeStyle=orthogonalEdgeStyle;rounded=0;orthogonalLoop=1;jettySize=auto;html=1;entryX=0.5;entryY=0;entryDx=0;entryDy=0;" edge="1" parent="1" source="3i3_qJuaZtlP3eawbYPi-3" target="3i3_qJuaZtlP3eawbYPi-1">
          <mxGeometry relative="1" as="geometry" />
        </mxCell>
        <mxCell id="3i3_qJuaZtlP3eawbYPi-10" style="edgeStyle=orthogonalEdgeStyle;rounded=0;orthogonalLoop=1;jettySize=auto;html=1;entryX=0.5;entryY=0;entryDx=0;entryDy=0;" edge="1" parent="1" source="3i3_qJuaZtlP3eawbYPi-3" target="3i3_qJuaZtlP3eawbYPi-4">
          <mxGeometry relative="1" as="geometry" />
        </mxCell>
        <mxCell id="3i3_qJuaZtlP3eawbYPi-3" value="Patrol&lt;br&gt;巡查活动" style="rounded=1;whiteSpace=wrap;html=1;" vertex="1" parent="1">
          <mxGeometry x="1050" y="660" width="120" height="60" as="geometry" />
        </mxCell>
        <mxCell id="3i3_qJuaZtlP3eawbYPi-12" style="edgeStyle=orthogonalEdgeStyle;rounded=0;orthogonalLoop=1;jettySize=auto;html=1;entryX=0.5;entryY=0;entryDx=0;entryDy=0;" edge="1" parent="1" source="3i3_qJuaZtlP3eawbYPi-4" target="3i3_qJuaZtlP3eawbYPi-8">
          <mxGeometry relative="1" as="geometry" />
        </mxCell>
        <mxCell id="3i3_qJuaZtlP3eawbYPi-4" value="Project&lt;br&gt;项目" style="rounded=1;whiteSpace=wrap;html=1;" vertex="1" parent="1">
          <mxGeometry x="1330" y="905" width="120" height="60" as="geometry" />
        </mxCell>
        <mxCell id="3i3_qJuaZtlP3eawbYPi-25" style="edgeStyle=orthogonalEdgeStyle;rounded=0;orthogonalLoop=1;jettySize=auto;html=1;entryX=0.5;entryY=0;entryDx=0;entryDy=0;" edge="1" parent="1" source="3i3_qJuaZtlP3eawbYPi-8" target="3i3_qJuaZtlP3eawbYPi-21">
          <mxGeometry relative="1" as="geometry" />
        </mxCell>
        <mxCell id="3i3_qJuaZtlP3eawbYPi-8" value="InspectionTask&lt;br&gt;巡查任务" style="rounded=1;whiteSpace=wrap;html=1;" vertex="1" parent="1">
          <mxGeometry x="1330" y="1070" width="120" height="60" as="geometry" />
        </mxCell>
        <mxCell id="3i3_qJuaZtlP3eawbYPi-13" value="多对多" style="text;html=1;strokeColor=none;fillColor=none;align=center;verticalAlign=middle;whiteSpace=wrap;rounded=0;" vertex="1" parent="1">
          <mxGeometry x="850" y="790" width="60" height="30" as="geometry" />
        </mxCell>
        <mxCell id="3i3_qJuaZtlP3eawbYPi-14" value="多对多" style="text;html=1;strokeColor=none;fillColor=none;align=center;verticalAlign=middle;whiteSpace=wrap;rounded=0;" vertex="1" parent="1">
          <mxGeometry x="1330" y="790" width="60" height="30" as="geometry" />
        </mxCell>
        <mxCell id="3i3_qJuaZtlP3eawbYPi-15" value="多对多" style="text;html=1;strokeColor=none;fillColor=none;align=center;verticalAlign=middle;whiteSpace=wrap;rounded=0;" vertex="1" parent="1">
          <mxGeometry x="850" y="1000" width="60" height="30" as="geometry" />
        </mxCell>
        <mxCell id="3i3_qJuaZtlP3eawbYPi-17" value="多对多" style="text;html=1;strokeColor=none;fillColor=none;align=center;verticalAlign=middle;whiteSpace=wrap;rounded=0;" vertex="1" parent="1">
          <mxGeometry x="1330" y="1000" width="60" height="30" as="geometry" />
        </mxCell>
        <mxCell id="3i3_qJuaZtlP3eawbYPi-37" style="edgeStyle=orthogonalEdgeStyle;rounded=0;orthogonalLoop=1;jettySize=auto;html=1;entryX=1;entryY=0.5;entryDx=0;entryDy=0;" edge="1" parent="1" source="3i3_qJuaZtlP3eawbYPi-19" target="3i3_qJuaZtlP3eawbYPi-4">
          <mxGeometry relative="1" as="geometry" />
        </mxCell>
        <mxCell id="3i3_qJuaZtlP3eawbYPi-19" value="ProblemList&lt;br&gt;（问题清单）&lt;br&gt;问题记录列表" style="rounded=1;whiteSpace=wrap;html=1;" vertex="1" parent="1">
          <mxGeometry x="1710" y="905" width="120" height="60" as="geometry" />
        </mxCell>
        <mxCell id="3i3_qJuaZtlP3eawbYPi-34" style="edgeStyle=orthogonalEdgeStyle;rounded=0;orthogonalLoop=1;jettySize=auto;html=1;entryX=0.5;entryY=1;entryDx=0;entryDy=0;" edge="1" parent="1" source="3i3_qJuaZtlP3eawbYPi-21" target="3i3_qJuaZtlP3eawbYPi-19">
          <mxGeometry relative="1" as="geometry" />
        </mxCell>
        <mxCell id="3i3_qJuaZtlP3eawbYPi-42" style="edgeStyle=orthogonalEdgeStyle;rounded=0;orthogonalLoop=1;jettySize=auto;html=1;entryX=1;entryY=0.5;entryDx=0;entryDy=0;" edge="1" parent="1" source="3i3_qJuaZtlP3eawbYPi-21" target="3i3_qJuaZtlP3eawbYPi-41">
          <mxGeometry relative="1" as="geometry" />
        </mxCell>
        <mxCell id="3i3_qJuaZtlP3eawbYPi-21" value="ProblemRecord&lt;br&gt;问题记录" style="rounded=1;whiteSpace=wrap;html=1;" vertex="1" parent="1">
          <mxGeometry x="1330" y="1260" width="120" height="60" as="geometry" />
        </mxCell>
        <mxCell id="3i3_qJuaZtlP3eawbYPi-28" value="一对一" style="text;html=1;strokeColor=none;fillColor=none;align=center;verticalAlign=middle;whiteSpace=wrap;rounded=0;" vertex="1" parent="1">
          <mxGeometry x="1080" y="1070" width="60" height="30" as="geometry" />
        </mxCell>
        <mxCell id="3i3_qJuaZtlP3eawbYPi-32" value="一对多" style="text;html=1;strokeColor=none;fillColor=none;align=center;verticalAlign=middle;whiteSpace=wrap;rounded=0;" vertex="1" parent="1">
          <mxGeometry x="1330" y="1190" width="60" height="30" as="geometry" />
        </mxCell>
        <mxCell id="3i3_qJuaZtlP3eawbYPi-35" value="多对一" style="text;html=1;strokeColor=none;fillColor=none;align=center;verticalAlign=middle;whiteSpace=wrap;rounded=0;" vertex="1" parent="1">
          <mxGeometry x="1560" y="935" width="60" height="30" as="geometry" />
        </mxCell>
        <mxCell id="3i3_qJuaZtlP3eawbYPi-36" value="多对一" style="text;html=1;strokeColor=none;fillColor=none;align=center;verticalAlign=middle;whiteSpace=wrap;rounded=0;" vertex="1" parent="1">
          <mxGeometry x="1240" y="1260" width="60" height="30" as="geometry" />
        </mxCell>
        <mxCell id="3i3_qJuaZtlP3eawbYPi-41" value="&lt;i&gt;RegulatoryBasis&lt;/i&gt;&lt;br&gt;检查依据" style="rounded=1;whiteSpace=wrap;html=1;" vertex="1" parent="1">
          <mxGeometry x="1070" y="1260" width="120" height="60" as="geometry" />
        </mxCell>
        <mxCell id="3i3_qJuaZtlP3eawbYPi-45" value="多对多" style="text;html=1;strokeColor=none;fillColor=none;align=center;verticalAlign=middle;whiteSpace=wrap;rounded=0;" vertex="1" parent="1">
          <mxGeometry x="1560" y="1260" width="60" height="30" as="geometry" />
        </mxCell>
        <mxCell id="3i3_qJuaZtlP3eawbYPi-110" style="edgeStyle=orthogonalEdgeStyle;rounded=0;orthogonalLoop=1;jettySize=auto;html=1;entryX=0;entryY=0.5;entryDx=0;entryDy=0;" edge="1" parent="1" source="3i3_qJuaZtlP3eawbYPi-73" target="3i3_qJuaZtlP3eawbYPi-105">
          <mxGeometry relative="1" as="geometry" />
        </mxCell>
        <mxCell id="3i3_qJuaZtlP3eawbYPi-73" value="Expert&lt;br&gt;专家" style="rounded=1;whiteSpace=wrap;html=1;" vertex="1" parent="1">
          <mxGeometry x="600" y="1765" width="120" height="60" as="geometry" />
        </mxCell>
        <mxCell id="3i3_qJuaZtlP3eawbYPi-109" style="edgeStyle=orthogonalEdgeStyle;rounded=0;orthogonalLoop=1;jettySize=auto;html=1;entryX=0.5;entryY=0;entryDx=0;entryDy=0;" edge="1" parent="1" source="3i3_qJuaZtlP3eawbYPi-78" target="3i3_qJuaZtlP3eawbYPi-105">
          <mxGeometry relative="1" as="geometry" />
        </mxCell>
        <mxCell id="3i3_qJuaZtlP3eawbYPi-78" value="Patrol&lt;br&gt;巡查活动" style="rounded=1;whiteSpace=wrap;html=1;" vertex="1" parent="1">
          <mxGeometry x="850" y="1580" width="120" height="60" as="geometry" />
        </mxCell>
        <mxCell id="3i3_qJuaZtlP3eawbYPi-80" value="Project&lt;br&gt;项目" style="rounded=1;whiteSpace=wrap;html=1;" vertex="1" parent="1">
          <mxGeometry x="1120" y="1765" width="120" height="60" as="geometry" />
        </mxCell>
        <mxCell id="3i3_qJuaZtlP3eawbYPi-83" value="一对多" style="text;html=1;strokeColor=none;fillColor=none;align=center;verticalAlign=middle;whiteSpace=wrap;rounded=0;" vertex="1" parent="1">
          <mxGeometry x="910" y="1680" width="60" height="30" as="geometry" />
        </mxCell>
        <mxCell id="3i3_qJuaZtlP3eawbYPi-88" value="ProblemList&lt;br&gt;问题记录列表&lt;br&gt;（问题清单）" style="rounded=1;whiteSpace=wrap;html=1;" vertex="1" parent="1">
          <mxGeometry x="850" y="2160" width="120" height="60" as="geometry" />
        </mxCell>
        <mxCell id="3i3_qJuaZtlP3eawbYPi-90" style="edgeStyle=orthogonalEdgeStyle;rounded=0;orthogonalLoop=1;jettySize=auto;html=1;entryX=1;entryY=0.5;entryDx=0;entryDy=0;" edge="1" parent="1" source="3i3_qJuaZtlP3eawbYPi-91" target="3i3_qJuaZtlP3eawbYPi-96">
          <mxGeometry relative="1" as="geometry" />
        </mxCell>
        <mxCell id="3i3_qJuaZtlP3eawbYPi-115" style="edgeStyle=orthogonalEdgeStyle;rounded=0;orthogonalLoop=1;jettySize=auto;html=1;entryX=0.5;entryY=1;entryDx=0;entryDy=0;" edge="1" parent="1" source="3i3_qJuaZtlP3eawbYPi-91" target="3i3_qJuaZtlP3eawbYPi-80">
          <mxGeometry relative="1" as="geometry" />
        </mxCell>
        <mxCell id="3i3_qJuaZtlP3eawbYPi-119" style="edgeStyle=orthogonalEdgeStyle;rounded=0;orthogonalLoop=1;jettySize=auto;html=1;entryX=0.5;entryY=0;entryDx=0;entryDy=0;" edge="1" parent="1" source="3i3_qJuaZtlP3eawbYPi-91" target="3i3_qJuaZtlP3eawbYPi-88">
          <mxGeometry relative="1" as="geometry" />
        </mxCell>
        <mxCell id="3i3_qJuaZtlP3eawbYPi-91" value="ProblemRecord&lt;br&gt;问题记录" style="rounded=1;whiteSpace=wrap;html=1;" vertex="1" parent="1">
          <mxGeometry x="850" y="1980" width="120" height="60" as="geometry" />
        </mxCell>
        <mxCell id="3i3_qJuaZtlP3eawbYPi-95" value="多对一" style="text;html=1;strokeColor=none;fillColor=none;align=center;verticalAlign=middle;whiteSpace=wrap;rounded=0;" vertex="1" parent="1">
          <mxGeometry x="760" y="2010" width="60" height="30" as="geometry" />
        </mxCell>
        <mxCell id="3i3_qJuaZtlP3eawbYPi-96" value="&lt;i&gt;RegulatoryBasis&lt;/i&gt;&lt;br&gt;检查依据" style="rounded=1;whiteSpace=wrap;html=1;" vertex="1" parent="1">
          <mxGeometry x="600" y="1980" width="120" height="60" as="geometry" />
        </mxCell>
        <mxCell id="3i3_qJuaZtlP3eawbYPi-100" value="多对多" style="text;html=1;strokeColor=none;fillColor=none;align=center;verticalAlign=middle;whiteSpace=wrap;rounded=0;" vertex="1" parent="1">
          <mxGeometry x="1020" y="1795" width="60" height="30" as="geometry" />
        </mxCell>
        <mxCell id="3i3_qJuaZtlP3eawbYPi-102" value="一对多" style="text;html=1;strokeColor=none;fillColor=none;align=center;verticalAlign=middle;whiteSpace=wrap;rounded=0;" vertex="1" parent="1">
          <mxGeometry x="910" y="1880" width="60" height="30" as="geometry" />
        </mxCell>
        <mxCell id="3i3_qJuaZtlP3eawbYPi-107" style="edgeStyle=orthogonalEdgeStyle;rounded=0;orthogonalLoop=1;jettySize=auto;html=1;entryX=0;entryY=0.5;entryDx=0;entryDy=0;" edge="1" parent="1" source="3i3_qJuaZtlP3eawbYPi-105" target="3i3_qJuaZtlP3eawbYPi-80">
          <mxGeometry relative="1" as="geometry" />
        </mxCell>
        <mxCell id="3i3_qJuaZtlP3eawbYPi-112" style="edgeStyle=orthogonalEdgeStyle;rounded=0;orthogonalLoop=1;jettySize=auto;html=1;entryX=0.5;entryY=0;entryDx=0;entryDy=0;" edge="1" parent="1" source="3i3_qJuaZtlP3eawbYPi-105" target="3i3_qJuaZtlP3eawbYPi-91">
          <mxGeometry relative="1" as="geometry" />
        </mxCell>
        <mxCell id="3i3_qJuaZtlP3eawbYPi-105" value="InspectionTeam&lt;br&gt;巡查小组" style="rounded=1;whiteSpace=wrap;html=1;" vertex="1" parent="1">
          <mxGeometry x="850" y="1765" width="120" height="60" as="geometry" />
        </mxCell>
        <mxCell id="3i3_qJuaZtlP3eawbYPi-108" value="多对一" style="text;html=1;strokeColor=none;fillColor=none;align=center;verticalAlign=middle;whiteSpace=wrap;rounded=0;" vertex="1" parent="1">
          <mxGeometry x="760" y="1795" width="60" height="30" as="geometry" />
        </mxCell>
        <mxCell id="3i3_qJuaZtlP3eawbYPi-116" value="多对多" style="text;html=1;strokeColor=none;fillColor=none;align=center;verticalAlign=middle;whiteSpace=wrap;rounded=0;" vertex="1" parent="1">
          <mxGeometry x="1020" y="2010" width="60" height="30" as="geometry" />
        </mxCell>
        <mxCell id="3i3_qJuaZtlP3eawbYPi-120" value="按项目外键和巡查小组外键合并" style="text;html=1;strokeColor=none;fillColor=none;align=center;verticalAlign=middle;whiteSpace=wrap;rounded=0;" vertex="1" parent="1">
          <mxGeometry x="910" y="2100" width="200" height="30" as="geometry" />
        </mxCell>
      </root>
    </mxGraphModel>
  </diagram>
</mxfile>
